<svg xmlns="http://www.w3.org/2000/svg" width="166" height="80" viewBox="0 0 166 80">
  <g id="logo_avnet_large_ondark_small" transform="translate(-421.859 -229.977)">
    <g id="Group_9" data-name="Group 9" transform="translate(421.859 229.977)">
      <g id="Group_7" data-name="Group 7">
        <path id="Path_6" data-name="Path 6" d="M527.265,229.977h15.827l-32.634,63.249-24.515-47.25h15.828l8.688,19.877Z" transform="translate(-448.832 -229.977)" fill="#9fff03"/>
        <path id="Path_7" data-name="Path 7" d="M454.425,285.3l-16.739,36.544H421.859l32.566-63.916,24.583,47.25H463.18Z" transform="translate(-421.859 -241.843)" fill="#9fff03"/>
      </g>
      <g id="Group_8" data-name="Group 8" transform="translate(90.824 23.031)">
        <path id="Path_8" data-name="Path 8" d="M578.7,286.022l3.811,0,0,4.477c2.969-2.584,5.659-4.48,9.078-4.483h2.578c4.933,0,7.624,2.75,7.628,7.8L601.808,317l-3.812,0-.014-23.418c0-2.583-1.348-4.017-3.926-4.015l-2.466,0c-3.083,0-5.772,1.208-9.078,3.621l.015,23.82-3.812,0Z" transform="translate(-578.696 -276.798)" fill="blue"/>
        <path id="Path_9" data-name="Path 9" d="M636.044,309.521c0,2.641,1.4,4.017,3.926,4.015l7.847,0c2.523,0,3.923-1.437,3.922-4.02v-2.239l3.811,0v1.894c0,5.051-2.686,7.808-7.618,7.811l-8.071.005c-4.933,0-7.624-2.751-7.627-7.8l-.01-15.382c0-5.051,2.686-7.808,7.619-7.81l8.071,0c4.933,0,7.625,2.75,7.628,7.8l.005,8.495-19.506.012Zm3.912-20.092c-2.523,0-3.923,1.38-3.921,4.021l0,5.625,15.694-.01,0-5.625c0-2.64-1.348-4.017-3.926-4.015Z" transform="translate(-601.226 -276.785)" fill="blue"/>
        <path id="Path_10" data-name="Path 10" d="M688.889,302.716c0,2.583,1.4,4.017,3.926,4.015l3.867,0,0,3.444-3.98,0c-4.933,0-7.624-2.751-7.628-7.8l-.012-19.859-4.652,0,0-3.329,4.709,0L685.114,270l3.7,0,.006,9.184,7.847,0,0,3.329-7.791,0Z" transform="translate(-621.508 -270)" fill="blue"/>
      </g>
    </g>
  </g>
</svg>
